<?xml version="1.0" standalone="no"?>
<!DOCTYPE svg PUBLIC "-//W3C//DTD SVG 20010904//EN"
 "http://www.w3.org/TR/2001/REC-SVG-20010904/DTD/svg10.dtd">
<svg version="1.0" xmlns="http://www.w3.org/2000/svg"
 width="200.000000pt" height="200.000000pt" viewBox="0 0 200.000000 200.000000"
 preserveAspectRatio="xMidYMid meet">
<metadata>
Created by potrace 1.11, written by Peter Selinger 2001-2013
</metadata>
<g transform="translate(0.000000,200.000000) scale(0.100000,-0.100000)"
fill="#000000" stroke="none">
<path d="M688 1442 c-11 -14 -14 -57 -13 -207 1 -104 5 -198 9 -207 7 -16 24
-18 131 -18 l122 0 -1 -42 c-1 -36 -5 -43 -26 -49 -14 -4 -18 -8 -10 -9 33 -5
192 -2 197 4 4 3 -3 6 -15 6 -12 0 -22 6 -23 13 0 6 -2 27 -3 45 l-2 32 115 0
c64 0 123 5 131 10 12 7 15 44 15 210 0 111 -3 207 -7 213 -5 9 -88 12 -307
14 -269 1 -301 0 -313 -15z m598 -6 c11 -4 14 -42 14 -200 0 -176 -2 -196 -17
-204 -26 -11 -572 -7 -584 5 -6 6 -8 86 -7 204 l3 194 40 5 c52 7 533 3 551
-4z m-246 -469 l0 -44 -45 -1 -45 -2 0 45 0 45 45 0 45 0 0 -43z"/>
<path d="M1002 1273 c-17 -43 -38 -95 -46 -115 -9 -21 -12 -38 -7 -38 8 0 22
30 82 183 10 26 15 47 10 47 -4 0 -22 -35 -39 -77z"/>
<path d="M821 1279 c-40 -23 -69 -45 -65 -49 22 -20 130 -78 137 -73 5 3 -19
21 -53 41 l-63 35 54 33 c30 18 59 35 64 37 6 3 8 7 5 10 -3 3 -39 -12 -79
-34z"/>
<path d="M1096 1311 c-3 -4 22 -23 55 -41 32 -19 56 -37 52 -41 -5 -5 -32 -21
-62 -37 -29 -16 -49 -32 -44 -35 7 -5 115 53 136 73 5 4 -23 26 -62 48 -39 22
-73 37 -75 33z"/>
<path d="M181 789 c-13 -5 -36 -19 -53 -30 -38 -27 -23 -47 18 -26 l29 15 0
-84 c0 -48 -4 -84 -10 -85 -5 -1 -17 -2 -25 -3 -8 0 -15 -8 -15 -16 0 -12 15
-15 68 -15 91 -1 110 25 25 34 -4 1 -7 49 -7 107 0 59 -2 108 -3 109 -2 2 -14
-1 -27 -6z"/>
<path d="M383 788 c-36 -9 -82 -59 -84 -91 -7 -101 11 -142 65 -152 55 -11
105 25 106 75 0 55 -52 90 -104 70 -36 -13 -35 13 2 50 20 19 36 27 56 25 20
-3 26 1 24 12 -4 19 -23 23 -65 11z m21 -128 c20 -7 26 -17 26 -39 0 -51 -65
-67 -89 -22 -19 34 -8 54 36 70 1 1 13 -3 27 -9z"/>
<path d="M560 793 c-50 -18 -65 -68 -30 -103 19 -19 19 -20 0 -30 -48 -26 -28
-102 30 -115 75 -17 142 46 106 100 -9 14 -21 25 -26 25 -6 0 -1 9 10 20 23
23 26 59 8 82 -14 17 -74 30 -98 21z m70 -58 c0 -34 -25 -51 -55 -37 -48 22
-22 74 31 64 17 -3 24 -11 24 -27z m-11 -94 c18 -18 19 -60 2 -62 -3 0 -15 -2
-26 -4 -42 -8 -66 35 -37 68 20 22 37 22 61 -2z"/>
<path d="M858 783 c-44 -18 -68 -62 -68 -127 0 -88 83 -139 164 -101 20 10 35
23 33 29 -4 11 -9 11 -58 -4 -16 -5 -38 -3 -57 5 -38 16 -51 66 -33 126 9 31
18 40 44 47 41 11 64 5 70 -19 8 -30 32 -23 34 10 2 22 -3 32 -16 36 -41 13
-78 12 -113 -2z"/>
<path d="M1273 792 c-32 -3 -48 -22 -19 -22 19 0 22 -14 21 -108 -1 -69 -5
-85 -21 -97 -22 -16 -20 -17 61 -20 84 -2 111 14 121 74 1 7 -8 24 -21 37 -20
20 -21 25 -9 32 8 4 17 20 19 35 6 32 -23 67 -57 68 -13 0 -32 1 -43 2 -11 1
-35 1 -52 -1z m114 -58 c8 -22 -16 -44 -48 -44 -26 0 -29 3 -29 34 0 25 5 36
18 39 21 5 51 -10 59 -29z m-9 -82 c15 -10 23 -44 14 -59 -4 -6 -24 -14 -44
-17 l-38 -6 0 45 c0 42 2 45 28 45 15 0 33 -4 40 -8z"/>
<path d="M1508 792 c-42 -3 -46 -9 -22 -26 11 -8 15 -29 15 -71 1 -117 0 -125
-17 -125 -9 0 -14 -5 -12 -12 3 -8 34 -12 91 -14 l87 -1 0 33 c0 36 -15 46
-24 16 -5 -13 -16 -18 -44 -17 -36 0 -37 1 -40 43 l-3 42 40 0 c30 0 41 4 41
15 0 11 -11 15 -40 15 -39 0 -40 1 -40 34 0 27 4 34 23 38 33 6 57 -2 57 -18
0 -8 7 -14 15 -14 10 0 15 10 15 30 0 17 -3 30 -7 31 -33 3 -105 3 -135 1z"/>
<path d="M1725 792 c-33 -4 -60 -22 -32 -22 20 0 19 6 22 -103 1 -66 -2 -90
-12 -94 -7 -3 -13 -11 -13 -18 0 -8 14 -11 43 -10 62 3 64 4 42 21 -12 9 -20
28 -21 50 -2 31 0 35 19 32 14 -2 31 -19 47 -51 26 -49 54 -67 74 -47 8 8 7
14 -7 21 -9 6 -25 28 -36 49 -18 38 -18 39 0 56 24 22 25 76 2 96 -19 17 -78
26 -128 20z m103 -64 c4 -30 -19 -51 -50 -46 -18 2 -23 10 -24 33 -1 41 11 55
44 46 19 -5 28 -15 30 -33z"/>
<path d="M1010 783 c0 -3 6 -14 14 -22 52 -59 91 -176 62 -187 -33 -13 -16
-30 28 -29 52 1 66 9 38 24 -15 8 -19 19 -17 43 4 39 61 147 81 155 29 11 12
23 -31 23 -42 0 -61 -13 -32 -23 9 -3 6 -17 -11 -53 l-24 -48 -24 49 c-20 41
-21 51 -9 53 33 7 12 22 -30 22 -25 0 -45 -3 -45 -7z"/>
</g>
</svg>
